<?xml version="1.0" encoding="UTF-8" standalone="no"?>
<!-- Created with Inkscape (http://www.inkscape.org/) -->

<svg
   version="1.1"
   id="svg2"
   width="128"
   height="128"
   viewBox="0 0 128 128"
   sodipodi:docname="icons8-stopwatch-glyph-neue-96.svg"
   inkscape:version="1.2.2 (732a01da63, 2022-12-09)"
   xmlns:inkscape="http://www.inkscape.org/namespaces/inkscape"
   xmlns:sodipodi="http://sodipodi.sourceforge.net/DTD/sodipodi-0.dtd"
   xmlns="http://www.w3.org/2000/svg"
   xmlns:svg="http://www.w3.org/2000/svg">
   <style>
       path {
         fill: black;
       }
       @media (prefers-color-scheme: dark) {
         path {
           fill: white;
         }
       }
   </style>
  <defs
     id="defs6" />
  <sodipodi:namedview
     id="namedview4"
     pagecolor="#ffffff"
     bordercolor="#cccccc"
     borderopacity="1"
     inkscape:showpageshadow="0"
     inkscape:pageopacity="1"
     inkscape:pagecheckerboard="true"
     inkscape:deskcolor="#d1d1d1"
     showgrid="false"
     inkscape:zoom="2.7676601"
     inkscape:cx="-40.286738"
     inkscape:cy="100.44586"
     inkscape:window-width="2560"
     inkscape:window-height="1369"
     inkscape:window-x="1912"
     inkscape:window-y="-8"
     inkscape:window-maximized="1"
     inkscape:current-layer="layer1" />
  <g
     inkscape:groupmode="layer"
     id="layer1"
     inkscape:label="Layer 1">
    <path
      d="m 51.897868,6.5177675 v 6.6666665 h 8 v 9.333334 c -32.15013,0 -53.2880498,36.135866 -43.5556,65.333333 4.22133,12.663869 13.13093,22.343199 24.88893,28.222269 4.6916,2.34573 9.28667,4.588 14.66667,5.11106 24.192,2.352 47.534792,-9.2712 55.555592,-33.333329 9.74587,-29.237867 -11.38627,-65.333333 -43.555592,-65.333333 v -9.333334 h 8 V 6.5177675 h -24 M 107.89786,38.517768 c 2.16987,-1.256267 5.05507,-2.6496 6,-5.333334 1.30013,-3.6924 -6.44493,-11.5556 -10,-11.5556 -2.84293,0 -5.622522,3.469334 -4.666662,6.222267 1.365592,3.932933 6.556932,7.022667 8.666662,10.666667 M 62.564538,29.406701 c 23.13906,-2.571067 43.999992,20.262933 43.999992,42.4444 0,23.678131 -19.167992,40.067199 -41.333332,42.222269 -32.65986,3.1752 -51.20786,-33.825336 -39.5556,-60.888936 6.4232,-14.918133 21.69494,-22.0896 36.88894,-23.777733 m -1.33334,6.4444 1.33334,8 h 2.66666 l 1.33334,-8 h -5.33334 m -22.66666,9.333333 -1.33334,1.333334 c 2.42427,8.3748 12.14347,14.18 17.11107,21.333333 2.24827,3.237467 1.16333,7.516667 4.44453,10.222267 2.79174,2.302 7.4304,2.302 10.22214,0 3.24986,-2.679734 3.81333,-8.056267 1.1112,-11.333334 -2.7056,-3.2812 -6.9848,-2.196266 -10.22227,-4.444533 -7.15347,-4.9676 -12.9584,-14.6868 -21.33333,-17.111067 m 44,6.666667 1.33333,1.333333 6.66667,-6.666666 -1.33334,-1.333334 -6.66666,6.666667 m -54.66667,17.333333 v 5.333334 l 8,-1.333334 v -2.666666 l -8,-1.333334 m 64,1.333334 v 2.666666 l 8,1.333334 v -5.333334 l -8,1.333334 m -54.66667,26.666664 1.33334,1.33334 6.66666,-6.66667 -1.33333,-1.333334 -6.66667,6.666664 m 46.66667,-6.666664 -1.33333,1.333334 6.66666,6.66667 1.33334,-1.33334 -6.66667,-6.666664 m -21.33333,9.333334 -1.33334,7.999998 h 5.33334 l -1.33334,-7.999998 z"
       id="path881" />
  </g>
</svg>
